<?xml version="1.0" encoding="utf-8" ?><svg xmlns="http://www.w3.org/2000/svg" xmlns:xlink="http://www.w3.org/1999/xlink" width="1602" height="1600" viewBox="0 0 1602 1600"><path d="M770.092 0L835.267 0C841.25 1.20706 848.772 1.22356 854.937 1.58492C864.95 2.17768 874.951 2.95297 884.936 3.9104C916.384 7.20405 947.617 12.2942 978.482 19.156C1174.1 63.1954 1346.08 179.041 1460.42 343.791C1525.55 437.369 1569.8 543.86 1590.18 656.044C1593.77 675.566 1596.58 695.222 1598.6 714.967C1599.32 722.211 1600.72 744.756 1602 750.682L1602 850.024C1599.29 863.247 1599.02 882.904 1597.34 896.974C1593.54 928.017 1587.95 958.815 1580.61 989.217C1533.88 1180.77 1418.16 1348.36 1255.6 1459.9C1160.16 1525.55 1051.57 1569.61 937.377 1589.01C917.223 1592.46 896.938 1595.1 876.572 1596.91C870.653 1597.42 838.913 1599.13 835.941 1600L770.116 1600C766.403 1598.95 741.494 1598.02 734.898 1597.45C712.283 1595.43 689.756 1592.52 667.367 1588.75C551.348 1568.92 441.164 1523.62 344.743 1456.11C170.751 1334.63 52.1399 1148.99 15.0104 940.031C-22.2141 730.515 25.5333 514.799 147.695 340.578C262.074 177.338 433.26 62.6868 627.726 19.0766C659.803 11.9328 692.284 6.74634 724.99 3.54587C737.919 2.22267 758.424 2.29744 770.092 0ZM714.046 328.501L759.253 564.296C702.488 574.979 658.523 601.66 620.418 644.244C561.015 592.445 499.287 538.078 439.109 487.423C400.928 530.211 368.998 587.299 350.117 641.189L501.124 693.646C525.97 702.269 552.177 710.898 576.785 719.925C558.918 774.811 557.919 825.421 576.847 880.109L427.067 932.111C402.491 940.645 374.193 949.673 350.23 958.921C369.88 1015.21 399.96 1067.28 438.893 1112.42C444.609 1108.33 453.566 1100.14 459.233 1095.23L495.14 1064.11C536.597 1028.21 578.618 991.098 620.457 955.794C659.181 998.741 701.835 1024.56 759.229 1035.91L729.271 1192.19C724.379 1217.7 719.495 1246.58 713.974 1271.68C751.22 1277.77 778.044 1280.44 816.052 1279.75C843.576 1278.66 864.773 1276.16 891.832 1271.74L861.821 1114.97C857.061 1090.16 850.468 1060.37 846.762 1035.79C903.156 1025.01 947.456 998.179 985.394 955.759L1103.96 1058.36C1123.99 1075.69 1146.54 1096.16 1166.84 1112.58C1205.86 1067.37 1236.01 1015.22 1255.71 958.846L1029.01 880.138C1047.68 825.497 1047.32 774.423 1029.04 719.815C1103.81 694.214 1180.94 665.758 1255.72 641.292C1236.04 584.824 1205.86 532.586 1166.77 487.331L985.342 644.249C947.248 601.268 903.017 575.238 846.728 564.192L891.88 328.367C856.244 322.458 827.048 319.384 790.588 320.355C763.335 321.506 741.04 323.592 714.046 328.501ZM234.745 1174.48C223.462 1180.97 211.8 1187.49 200.664 1194.17C305.573 1354.53 470.057 1466.45 657.704 1505.15C687.461 1511.25 732.075 1517.83 762.711 1518.65C762.738 1512.97 763.516 1481.76 761.827 1479L761.129 1478.88C725.361 1476.85 664.596 1468.54 630.07 1457.86C636.692 1432.9 644.253 1405.6 650.184 1380.53C542.677 1350.92 456.077 1301.13 376.637 1222.64C358.478 1239.34 337.243 1260.93 319.694 1278.61C298.374 1257.05 278.492 1234.12 260.174 1209.96C254.507 1202.48 239.196 1179.28 234.745 1174.48ZM843.102 121.103C884.146 123.359 935.934 130.885 975.784 142.121C969.105 167.729 962.574 193.926 955.618 219.411C1067.97 251.07 1145.7 296.925 1229.31 377.572C1247.97 358.958 1267.19 339.525 1286.3 321.465C1310.95 346.465 1333.68 373.282 1354.32 401.69L1370.91 425.576L1405.29 405.849C1298.97 243.422 1131.61 130.779 941.134 93.4298C908.769 87.1885 876.017 83.1599 843.104 81.3718L843.102 121.103ZM1382.06 957.956L1459.15 979.321C1451.09 1008.4 1438.83 1045.69 1425.9 1073.14C1421.17 1084.03 1416.36 1094.07 1411.15 1104.75C1422.46 1111.27 1434.18 1118.28 1445.55 1124.58C1532.21 953.014 1546.69 753.912 1485.77 571.608C1481.13 557.758 1452.65 482.8 1445.15 475.616C1434.75 481.62 1421.09 488.986 1411.24 495.362C1432.2 538.817 1446.19 573.855 1459.18 620.678C1435.15 627.493 1405.36 634.656 1382.14 642.109C1408.99 747.576 1411.29 852.417 1382.06 957.956ZM254.319 397.969C270.78 375.924 299.191 340.182 319.705 321.524C336.819 338.167 359.728 362.622 376.696 377.362C452.151 301.319 546.553 246.83 650.132 219.532C643.62 193.687 636.954 167.881 630.133 142.115C666.317 132.194 724.957 122.147 762.738 121.155C762.795 115.016 763.643 85.3981 761.915 81.8114C761.322 81.7747 759.914 81.6448 759.386 81.7018C570.498 92.7674 393.645 178.085 267.396 319.05C242.947 346.217 220.63 375.23 200.643 405.83L234.977 425.689C241.274 416.345 247.722 407.104 254.319 397.969ZM1370.83 1174.52C1343.82 1213.68 1320.16 1244.25 1286.29 1278.55L1229.19 1222.48C1149.43 1300.85 1063.81 1351.09 955.569 1380.61L975.823 1457.92C932.405 1469.41 887.943 1476.5 843.108 1479.1L843.095 1518.61C873.521 1517.46 910.294 1512.51 940.061 1506.76C1090.24 1477.62 1227.21 1401.32 1331.05 1288.96C1358.38 1259.49 1383.22 1227.78 1405.3 1194.19C1394.32 1187.8 1382.01 1180.28 1370.83 1174.52ZM178.76 1070.51C165.755 1039.76 155.468 1011.71 146.767 979.297C171.896 972.363 198.91 965.456 223.733 958.019C196.245 847.898 195.016 752.539 223.819 642.078C198.31 634.853 172.093 628.128 146.756 620.715C159.882 573.364 173.555 539.422 194.606 495.285L160.367 475.359C74.8203 644.697 59.5501 840.963 117.876 1021.5C128.838 1055.25 143.871 1092.98 160.349 1124.59L194.636 1104.76C189.278 1093.46 183.687 1081.98 178.76 1070.51Z"/></svg>