<?xml version="1.0" encoding="utf-8" ?><svg xmlns="http://www.w3.org/2000/svg" xmlns:xlink="http://www.w3.org/1999/xlink" width="1837" height="789" viewBox="0 0 1837 789"><path fill="#FDDF2C" d="M1580.25 404.731C1588.94 402.5 1637.28 404.142 1649.73 404.158L1830.47 404.058L1829.92 537.222L1650.79 537.013C1664.67 556.882 1681.01 575.589 1695.95 594.736C1706.03 608.28 1718.45 621.18 1725.47 636.821C1749.14 689.55 1714.19 755.478 1663.26 776.622C1646.51 783.577 1613.7 784.403 1594.55 784.75C1534.65 785.837 1474.39 785.443 1414.38 785.368C1389.46 785.356 1364.53 785.161 1339.61 784.783C1322.85 784.576 1280.33 785.341 1267.36 778.021C1228.57 756.142 1190.31 716.283 1157.99 685.53L1157.21 785.539C1125.74 785.053 1093.33 785.307 1061.79 785.197C1043.9 784.885 1026.01 784.797 1008.11 784.934L1007.31 407.889L1183.69 407.921L1235.32 407.827C1248.62 407.805 1261.66 407.503 1275 409.116C1345.23 418.095 1412.25 494.885 1386.44 566.966C1373.5 603.087 1357.14 615.624 1327.84 637.64C1329.81 645.572 1363.08 643.895 1371.44 644.073C1398.72 644.539 1426 644.694 1453.28 644.537L1514.76 644.497C1525.28 644.41 1544.56 644.253 1554.39 642.808C1527.42 603.375 1482.37 577.302 1477.65 524.944C1471.63 458.127 1514.68 411.096 1580.25 404.731ZM1571.62 660.727C1553.61 670.779 1464.63 666.851 1440.41 667.149C1404.42 667.591 1360.93 668.404 1325.1 663.647C1316.18 662.302 1296.32 640.388 1291.12 632.142L1291.46 631.874C1299.18 625.734 1309.62 621.916 1318.12 616.358C1345.78 598.268 1364.43 575.307 1369.13 542.064C1372.43 518.684 1359.94 492.557 1345.95 474.887C1327.25 451.255 1299.35 434.564 1269.17 431.387C1257.28 430.134 1244.85 430.45 1232.82 430.452L1180.2 430.499C1130.69 430.56 1079.63 429.863 1030.27 430.615L1030.89 762.164L1075.37 762.371C1094.97 762.5 1115.07 762.865 1134.63 762.721L1135.4 634.356C1147.78 644.193 1161.27 657.368 1172.86 668.347C1191.6 686.395 1210.59 704.171 1229.84 721.67C1240.31 731.095 1260.64 749.378 1272.78 755.323C1290.22 763.86 1331.27 762 1350.84 762.173L1446.7 762.733C1484.35 762.875 1522.01 762.787 1559.67 762.467C1584.93 762.225 1608.85 761.751 1634.08 759.828C1679.11 756.397 1714.89 708.266 1709.49 664.023C1708.65 656.843 1706.51 649.875 1703.18 643.458C1690.36 618.694 1662.25 592.04 1645.82 568.557C1635.45 553.744 1617.59 538.267 1632.18 518.541C1633.96 516.19 1635.91 514.584 1638.98 514.478C1655.72 513.654 1673.57 514.043 1690.35 514.063L1807.32 514.453L1807.44 426.824L1649.57 426.838L1605.81 426.686C1602.49 426.682 1587.2 426.649 1584.53 427.152C1559.36 429.404 1535.78 437.48 1519.12 457.376C1504.1 475.301 1497.92 498.656 1500.06 521.731C1504.86 573.566 1575.69 614.667 1578.47 642.381C1579.12 648.876 1575.02 655.485 1571.62 660.727Z"/><path fill="#FDDF2C" d="M1134.6 497.431L1196.19 497.617C1214.05 497.694 1247.37 495.107 1260.67 507.874C1278.8 525.281 1280.11 548.222 1262.71 566.868C1261.27 568.095 1259.78 569.274 1258.26 570.404C1238.48 584.898 1160.07 580.375 1134.51 576.541L1134.6 497.431ZM1157.34 556.04C1174.75 557.497 1233.73 559.619 1246.44 551.067C1254.4 541.939 1254.28 532.588 1244.77 524.439C1243.83 523.643 1242.87 522.877 1241.88 522.14C1222.99 519.733 1177.58 520.117 1157.37 520.222C1157.56 532.237 1157.2 544.161 1157.34 556.04Z"/><path fill="#FDDF2C" d="M335.463 4.88208C350.828 3.82248 378.136 4.65856 394.523 4.64137L512.384 4.53247L882.793 4.14822L882.819 132.556C830.409 131.154 770.491 132.15 717.7 132.509L717.738 384.483C672.371 383.173 619.046 384.177 573.389 384.432L573.402 132.2C554.783 131.989 404.285 131.461 400.68 133.839L400.953 135.834C406.651 145.675 416.623 157.997 423.748 167.142C435.537 182.058 447.119 197.137 458.489 212.374C464.464 220.495 474.143 233.411 477.65 242.858C497.217 295.568 459.463 365.752 404.952 379.023C384.632 383.97 355 383.705 333.936 383.949C308.118 384.246 282.298 384.373 256.479 384.329L5.3014 384.44L5.3039 245.679C84.6819 246.528 164.31 245.145 243.711 245.747C264.783 245.906 286.307 245.993 307.355 245.522C282.502 208.086 230.915 174.57 228.194 125.415C226.763 94.2091 237.752 63.7065 258.758 40.5768C279.936 16.949 304.271 6.56173 335.463 4.88208ZM329.717 241.039C326.947 255.645 325.311 258.485 312.703 267.073L310.141 268.802C216.758 268.796 121.244 267.701 28.0509 268.86C28.0545 299.407 27.6925 330.94 28.1065 361.411L265.632 361.418C293.392 361.383 321.477 361.609 349.188 360.964C363.948 360.621 384.855 360.581 398.85 357.083C435.145 348.009 460.253 308.134 460.14 272.008C460.073 250.569 450.979 240.928 439.278 224.762C428.438 210.283 417.415 195.942 406.21 181.743C395.293 167.738 371.455 143.179 379.491 124.81C383.643 115.319 390.764 110.488 401.001 110.308C423.207 109.446 445.528 109.672 467.769 109.613L596.405 109.326L596.433 361.399L695.06 361.417L695.06 109.399L860.09 109.437C860.093 82.1189 859.797 54.2561 860.118 26.9871L639.025 27.0954C602.639 27.144 563.131 26.3655 527.142 27.3604L396.319 27.642C354.353 27.731 311.069 19.9383 279.22 52.075C261.062 70.2041 250.88 94.8188 250.927 120.472C251.236 157.562 288.65 185.067 309.951 212.334C317.497 221.994 325.687 228.691 329.717 241.039Z"/><path fill="#FDDF2C" d="M1309.76 6.75453C1373.15 7.59522 1437.28 6.05599 1500.75 6.98401C1529.88 7.40995 1571.38 6.19343 1599.6 11.2142C1631.66 16.9178 1661.93 42.3161 1679.08 69.3734C1694.39 93.5278 1698.29 129.856 1692 157.582C1683.32 195.798 1660.54 218.412 1628.65 238.507L1636.34 244.714C1700.24 244.649 1765.73 247.018 1829.88 247.437C1830.13 292.399 1831.51 339.431 1832.54 384.474C1822.71 384.236 1812.34 384.359 1802.47 384.319L1663.63 384.156C1637.72 383.979 1611.96 384.269 1586.12 382.113C1565.14 380.363 1551 368.174 1535.49 355.181C1510.17 333.985 1486.48 310.865 1462.21 288.483C1462.22 320.484 1462.41 352.484 1462.78 384.483C1414.14 383.191 1358.76 384.225 1309.84 384.416C1308.69 343.844 1309.74 297.735 1309.74 256.802L1309.76 6.75453ZM1332.84 361.395L1439.65 361.381C1439.59 319.511 1439.91 276.888 1439.23 235.081C1463.34 258.016 1553.71 348.542 1579.4 357.766C1594.26 363.101 1649.1 361.339 1668.1 361.369L1762.1 361.415L1809.16 361.399L1807.41 269.929L1628.39 267.258C1617.01 258.478 1600.04 245.094 1593.51 232.151C1626.99 213.428 1656.63 198.054 1668.56 157.783C1674.94 136.262 1672.44 103.996 1661.66 84.6046C1649.87 63.395 1623.66 39.51 1599.63 34.6508C1569.42 28.5428 1522.07 29.7323 1490.07 29.6237L1332.79 29.5743L1332.84 361.395Z"/><path fill="#FDDF2C" d="M1437.69 96.7047C1472.1 97.1605 1509.47 94.5272 1543.28 99.0508C1576.04 103.432 1587.19 142.77 1565.73 166.779C1561.63 170.378 1557.3 174.73 1551.93 176.265C1535.59 180.936 1459.68 178.541 1437.76 178.625L1437.69 96.7047ZM1460.46 155.925C1474.46 155.951 1539.25 158.689 1547.45 152.686C1547.59 152.587 1547.73 152.492 1547.86 152.393C1548.1 152.217 1548.32 152.023 1548.55 151.829C1559.6 139.192 1553.45 122.464 1536.52 120.885C1511.55 118.557 1485.53 119.37 1460.39 119.518L1460.46 155.925Z"/><path fill="#FDDF2C" d="M11.541 405.23L153.786 405.278C158.026 415.605 162.52 429.515 166.369 440.376L189.744 506.371C202.011 474.004 213.874 438.126 225.441 405.26L363.892 405.246C376.281 438.181 386.419 473.856 398.958 507.085C403.297 496.514 407.804 482.365 411.626 471.379L434.04 406.478L577.337 406.449L492.415 653.842L447.17 785.482C414.653 785.086 381.251 785.453 348.667 785.451C343.183 767.874 335.691 747.822 329.615 730.237L294.227 628.152C287.152 645.452 280.051 666.489 273.573 684.247L237.706 782.893L139.856 782.881C129.388 750.203 117.309 717.098 106.432 684.454C75.4138 591.363 42.0964 498.391 11.541 405.23ZM190.12 573.819C172.302 529.976 154.078 473.634 137.903 428.088C106.575 428.048 74.8184 427.736 43.524 428.085C45.8293 437.719 52.8135 456.525 56.2284 466.486L80.1983 536.606L156.243 760.222L221.626 760.209L294.943 559.359L364.984 762.693L430.834 762.736C446.717 718.193 461.44 673.161 477.035 628.51C478.718 623.691 480.266 618.688 482.095 613.94L523.921 491.909C530.55 472.591 539.539 448.545 545.289 429.378L450.17 429.394C434.677 475.567 416.992 527.948 399.627 573.225C390.227 552.644 381.85 527.907 374.432 506.315L347.662 428.037C313.333 428.013 275.529 428.774 241.493 427.952L208.522 521.918C202.782 538.201 196.376 557.986 190.12 573.819Z"/><path fill="#FDDF2C" d="M952.468 6.78541L1144.36 6.78026C1157.28 41.9409 1169.6 79.5413 1181.88 115.061L1276.25 387.497C1229.07 387.349 1179.5 386.275 1132.59 386.949L1124.55 361.173C1122.45 353.397 1119.44 344.359 1117.06 336.554L982.531 336.203C977.568 352.317 972.518 368.404 967.381 384.462C920.18 383.434 869.78 384.33 822.329 384.336L907.374 137.979C922.194 95.0691 938.656 49.8532 952.468 6.78541ZM965.807 313.088C1021.8 313.664 1077.8 313.902 1133.8 313.801C1138.99 330.082 1143.99 348.133 1149.38 364.045C1180.43 364.221 1213.08 365.012 1244.02 364.718L1162.97 130.002C1152 98.3002 1138.08 61.2333 1128.32 29.5429C1076.52 29.5452 1020.11 30.7402 968.734 29.5257C947.096 96.1809 922.012 165.38 899.055 231.836L869.384 317.71C864.862 330.791 859.234 348.835 854.189 361.403L950.858 361.389L965.807 313.088Z"/><path fill="#FDDF2C" d="M1051.48 77.6817C1054.2 82.2915 1066.4 119.511 1069.18 127.7C1082.24 165.514 1095.03 203.417 1107.57 241.407C1088.23 241.138 1068.31 241.377 1048.92 241.373L993.126 241.61C1012.06 186.786 1031.52 132.141 1051.48 77.6817ZM1025.2 218.742L1050.8 218.737L1076.13 218.727C1073.24 210.153 1053.19 148.996 1050.77 146.734C1042.78 168.978 1032.05 196.564 1025.2 218.742Z"/><path fill="#FDDF2C" d="M647.215 402.627L837.001 402.57L968.988 782.269L825.429 782.877C822.37 773.198 819.37 763.5 816.427 753.785C814.248 748.117 811.594 738.617 809.679 732.552L674.287 731.586C670.987 745.658 663.833 767.394 659.587 781.867L516.88 780.17C531.917 734.743 548.382 688.662 564.022 643.372L647.215 402.627ZM663.273 425.715L588.301 642.795C575.349 680.303 560.814 720.074 548.786 757.72C580.042 758.283 611.302 758.59 642.563 758.643C647.333 742.711 653.27 724.354 657.352 708.473C681.537 708.855 705.724 709.084 729.911 709.159L826.417 709.967C830.487 722.924 839.171 747.922 842.032 760.226L937.135 759.571C898.326 648.62 860.486 535.766 820.807 425.331C801.012 425.35 776.066 424.625 756.727 425.423L663.273 425.715Z"/><path fill="#FDDF2C" d="M744.519 475.69C747.62 482.148 758.697 517.114 761.707 526.009L799.076 636.347C780.989 635.605 759.685 636.069 741.348 636.063L685.566 636.405C691.869 620.996 698.419 601.684 704.234 585.858L744.519 475.69ZM718.616 613.268L743.142 613.274L767.171 613.26C764.471 605.214 745.964 547.814 743.189 545.635C735.635 566.35 725.088 592.744 718.616 613.268Z"/></svg>