<?xml version="1.0" encoding="utf-8" ?><svg xmlns="http://www.w3.org/2000/svg" xmlns:xlink="http://www.w3.org/1999/xlink" width="1200" height="1200" viewBox="0 0 1200 1200"><path d="M601.304 12.2245C614.005 25.5226 628.301 42.6701 640.584 56.6247L705.566 130.521C677.822 173.759 656.416 226.113 654.289 277.949C676.68 244.255 720.731 203.1 757.352 185.713C766.7 195.731 776.405 207.052 785.569 217.343C798.422 231.677 811.197 246.08 823.895 260.551C821.256 261.531 818.653 262.61 816.093 263.783C764.091 287.098 721.412 333.762 702.04 387.308C675.559 460.505 666.203 548.187 698.304 621.259C712.866 654.406 736.612 681.44 771.023 694.12C803.085 706.151 837.347 701.466 867.816 687.322C886.196 678.789 912.029 662.213 926.627 648.147C961.238 614.794 989.757 568.228 1006.25 523.373C1050.24 403.771 1018.83 286.132 950.524 182.923C939.562 166.475 927.895 150.507 915.555 135.065C912.47 131.157 896.162 112.312 895.058 109.925L895.764 109.163C908.565 111.374 968.887 161.888 981.103 172.405C990.626 180.586 999.911 189.041 1008.94 197.76C1099.78 285.395 1148.84 386.136 1168.58 510.62C1171.76 537.386 1177.31 567.21 1177.1 594.243C1175.88 749.567 1122.35 908.552 1012.89 1020.25C902.716 1132.68 762.184 1182 608.126 1183.98C581.005 1184.1 553.909 1182.33 527.034 1178.69C376.439 1158.06 240.269 1078.28 148.65 956.995C55.1673 834.179 14.1939 679.309 34.7108 526.333C58.1351 355.928 158.555 203.779 304.495 110.655C305.451 110.045 306.843 110.082 307.921 110.232L308.261 111.001C307.565 113 297.521 124.33 295.245 127.152C285.243 139.678 275.803 152.643 266.954 166.009C248.299 193.966 232 223.426 218.225 254.084C178.879 342.546 163.065 440.204 198.788 532.742C215.492 574.998 244.67 620.163 278.586 650.779C317.464 685.874 382.413 713.709 433.52 692.618C454.898 683.796 474.236 668.928 488.215 650.613C495.236 640.538 500.475 630.229 505.465 618.976C545.206 529.343 525.604 422.573 477.266 340.582C456.451 305.275 413.937 276.381 377.675 260.631C398.716 236.404 423.542 209.227 445.498 185.713C452.592 188.527 461.889 194.116 468.414 198.346C499.773 218.98 526.66 245.712 547.474 276.951C547.487 226.919 524.724 172.109 496.002 131.857C500.523 126.179 505.587 120.556 510.445 115.15C540.992 81.1517 570.518 45.9828 601.304 12.2245Z"/></svg>